<?xml version="1.0" encoding="UTF-8"?>
<svg id="Layer_1" data-name="Layer 1" xmlns="http://www.w3.org/2000/svg" xmlns:xlink="http://www.w3.org/1999/xlink" viewBox="0 0 816.04 296.94">
  <defs>
    <style>
      .cls-1 {
        fill: #12372a;
      }

      .cls-1, .cls-2, .cls-3, .cls-4, .cls-5, .cls-6, .cls-7, .cls-8 {
        stroke-width: 0px;
      }

      .cls-9 {
        fill: #114232;
        stroke: #114232;
        stroke-miterlimit: 10;
        stroke-width: 5px;
      }

      .cls-10 {
        clip-path: url(#clippath);
      }

      .cls-2 {
        fill: none;
      }

      .cls-3 {
        fill: #99b417;
      }

      .cls-4 {
        fill: #225f40;
      }

      .cls-11 {
        clip-path: url(#clippath-1);
      }

      .cls-12 {
        clip-path: url(#clippath-2);
      }

      .cls-5 {
        fill: #87a922;
      }

      .cls-6 {
        fill: #ad4d27;
      }

      .cls-7 {
        fill: #397c58;
      }

      .cls-8 {
        fill: #17492e;
      }
    </style>
    <clipPath id="clippath">
      <rect class="cls-2" x="48.01" y="65.31" width="69.22" height="178.44" transform="translate(-32.33 22.27) rotate(-12.86)"/>
    </clipPath>
    <clipPath id="clippath-1">
      <rect class="cls-2" x="80.25" y="93.66" width="112.62" height="101.9" transform="translate(-52.82 205.43) rotate(-64.45)"/>
    </clipPath>
    <clipPath id="clippath-2">
      <rect class="cls-2" x="190.21" y="98.78" width="91.63" height="91.72"/>
    </clipPath>
  </defs>
  <g>
    <g>
      <path class="cls-1" d="M425.46,109.2c-3.73,16.24-8.68,28.6-14.86,37.09-6.18,8.49-13.3,12.74-21.34,12.74-6.7,0-11.84-2.94-15.42-8.83-3.58-5.88-5.36-14.41-5.36-25.58,0-13.55,2.46-26.51,7.37-38.88,4.92-12.36,11.4-22.38,19.44-30.05,8.04-7.67,16.38-11.51,25.03-11.51,4.77,0,8.45,1.23,11.06,3.69,2.6,2.46,3.91,5.92,3.91,10.39,0,4.02-.93,8.01-2.79,11.95-1.86,3.95-4.13,6.82-6.81,8.6,1.64,2.23,3.69,3.95,6.14,5.14,2.46,1.19,5.1,1.79,7.93,1.79,5.06,0,9.16-1.93,12.29-5.81,3.13-3.87,4.69-9.01,4.69-15.42,0-9.53-3.69-17.06-11.06-22.57-7.37-5.51-17.39-8.27-30.05-8.27-15.05,0-28.83,3.88-41.34,11.62-12.51,7.75-22.35,18.36-29.5,31.84-7.15,13.48-10.73,28.42-10.73,44.8,0,11.32,1.75,21.27,5.25,29.83,3.5,8.57,8.53,15.16,15.08,19.77,6.55,4.62,14.15,6.93,22.79,6.93,6.85,0,13.15-1.49,18.88-4.47,5.73-2.98,10.61-7.3,14.64-12.96h.89l-11.17,49.38c-1.94,9.08-4.77,15.94-8.49,20.56-3.73,4.62-8.19,6.93-13.41,6.93-4.17,0-7.64-1.49-10.39-4.47-2.76-2.98-4.13-6.85-4.13-11.62s1.41-8.64,4.25-11.62c2.83-2.98,6.48-4.47,10.95-4.47,2.53,0,4.95.52,7.26,1.56,2.31,1.04,4.13,2.46,5.47,4.25,1.64-2.09,2.46-4.92,2.46-8.49,0-4.62-1.75-8.34-5.25-11.17-3.5-2.83-8.08-4.25-13.74-4.25s-10.58,1.38-15.19,4.13c-4.62,2.76-8.27,6.52-10.95,11.28-2.68,4.77-4.02,9.98-4.02,15.64,0,9.08,3.31,16.42,9.94,22.01,6.63,5.59,15.38,8.38,26.26,8.38,13.85,0,25.14-5.22,33.85-15.64,8.71-10.43,15.45-26.74,20.22-48.94l16.31-75.08-26.37-.22Z"/>
      <path class="cls-1" d="M541.65,119.26c2.83-3.27,4.25-7.07,4.25-11.4,0-4.62-1.38-8.56-4.13-11.84-2.76-3.27-6.52-4.92-11.28-4.92s-9.2,1.19-13.29,3.58c-4.1,2.38-8.68,5.81-13.74,10.28l2.9-13.85h-32.18l-23.69,111.73h32.18l17.88-84.91c3.42-3.13,6.22-5.32,8.38-6.59,2.16-1.26,4.8-1.9,7.93-1.9,1.19,0,2.01.45,2.46,1.34.45.89.89,2.31,1.34,4.25.59,2.98,1.45,5.25,2.57,6.82,1.12,1.56,3.31,2.35,6.59,2.35,5.06,0,9.01-1.64,11.84-4.92Z"/>
      <path class="cls-1" d="M808.66,182.49c-3.28,0-5.59-.82-6.93-2.46-1.34-1.64-2.01-3.95-2.01-6.93,0-2.53.48-5.99,1.45-10.39.97-4.39,2.05-8.9,3.24-13.52,1.93-7.6,3.42-14.04,4.47-19.33,1.04-5.29,1.56-10.09,1.56-14.41,0-8.49-2.24-14.82-6.7-18.99-4.47-4.17-10.5-6.26-18.1-6.26-9.98,0-18.7,4.17-26.14,12.51l2.46-11.62h-32.18l-15.21,71.75c-6.85,7.59-13.13,13.24-18.86,16.96-5.74,3.73-12.62,5.59-20.67,5.59-5.66,0-9.76-1.3-12.29-3.91-2.54-2.6-3.8-7.56-3.8-14.86,0-1.49.15-4.47.45-8.94,8.94-.59,17.35-3.02,25.25-7.26,7.89-4.25,14.22-9.87,18.99-16.87,4.77-7,7.15-14.67,7.15-23.02,0-14.3-8.19-21.45-24.58-21.45-14,0-25.55,4.51-34.63,13.52-9.09,9.01-15.64,19.7-19.66,32.06-3.67,11.28-5.64,21.68-5.97,31.22-5.76,6.07-11.11,10.71-16.04,13.92-5.74,3.73-12.62,5.59-20.67,5.59-5.66,0-9.76-1.3-12.29-3.91-2.54-2.6-3.8-7.56-3.8-14.86,0-1.49.15-4.47.45-8.94,8.94-.59,17.35-3.02,25.25-7.26,7.89-4.25,14.22-9.87,18.99-16.87,4.77-7,7.15-14.67,7.15-23.02,0-14.3-8.19-21.45-24.58-21.45-14,0-25.55,4.51-34.63,13.52-9.09,9.01-15.64,19.7-19.66,32.06-4.02,12.37-6.03,23.69-6.03,33.96,0,12.22,3.05,21.19,9.16,26.93,6.11,5.74,14.67,8.6,25.7,8.6,19.75,0,36.92-9.01,51.51-27.02,1.14,7.97,4,14.11,8.6,18.42,6.11,5.74,14.67,8.6,25.7,8.6,19.32,0,36.17-8.63,50.56-25.87l-5.2,24.53h32.18l15.19-71.73c1.79-6.11,4.17-11.06,7.15-14.86,2.98-3.8,6.4-5.7,10.28-5.7,5.36,0,8.04,3.8,8.04,11.4,0,3.13-.52,7.23-1.56,12.29-1.04,5.07-2.16,10.21-3.35,15.42-.3,1.04-.86,3.43-1.68,7.15-.82,3.73-1.6,7.56-2.35,11.51-.75,3.95-1.12,7.49-1.12,10.61,0,7.3,1.79,13.33,5.36,18.1,3.58,4.77,9.31,7.15,17.21,7.15,6.4,0,11.88-1.93,16.42-5.81,4.54-3.87,7.26-9.61,8.16-17.21-1.34.89-3.8,1.34-7.37,1.34ZM672.25,115.01c5.14-9.38,10.39-14.08,15.75-14.08,3.72,0,5.59,3.06,5.59,9.16s-1.53,11.92-4.58,17.43c-3.05,5.51-7.08,10.06-12.07,13.63-4.99,3.58-10.24,5.51-15.75,5.81,2.23-11.92,5.92-22.57,11.06-31.95ZM586.45,115.01c5.14-9.38,10.39-14.08,15.75-14.08,3.72,0,5.59,3.06,5.59,9.16s-1.53,11.92-4.58,17.43c-3.05,5.51-7.08,10.06-12.07,13.63-4.99,3.58-10.24,5.51-15.75,5.81,2.23-11.92,5.92-22.57,11.06-31.95Z"/>
    </g>
    <g>
      <path class="cls-6" d="M479.53,242.19c-.97-.41-2.04-.72-3.16-.96.23-.09.48-.16.71-.27,2.26-.99,4.04-2.45,5.35-4.39,1.31-1.93,1.97-4.31,1.97-7.14,0-4.26-1.6-7.56-4.8-9.89-3.2-2.33-7.7-3.5-13.5-3.5h-22.46v52.05h23.95c6.54,0,11.44-1.21,14.69-3.64,3.25-2.43,4.87-5.85,4.87-10.26,0-2.97-.67-5.47-2.01-7.47-1.34-2.01-3.21-3.52-5.61-4.54ZM465.74,220.59c4.17,0,7.4.78,9.71,2.34,2.3,1.56,3.46,3.93,3.46,7.1s-1.15,5.48-3.46,7.06c-2.31,1.59-5.54,2.38-9.71,2.38h-16.58v-18.89h16.58ZM478.01,261.23c-2.43,1.56-5.92,2.34-10.49,2.34h-18.37v-19.56h18.37c4.56,0,8.06.78,10.49,2.34,2.43,1.56,3.64,4.03,3.64,7.4s-1.21,5.91-3.64,7.47Z"/>
      <path class="cls-6" d="M530.06,216.05l-23.8,52.05h5.73l6.22-13.91h29.05l6.22,13.91h5.8l-23.8-52.05h-5.43ZM520.21,249.74l12.53-28,12.53,28h-25.06Z"/>
      <path class="cls-6" d="M610.19,243.68c-1.91-1.02-3.99-1.85-6.25-2.49-2.26-.64-4.52-1.24-6.8-1.79-2.28-.54-4.38-1.16-6.28-1.86-1.91-.69-3.45-1.66-4.61-2.9-1.17-1.24-1.75-2.88-1.75-4.91,0-1.79.48-3.38,1.45-4.8.97-1.41,2.47-2.54,4.5-3.38,2.03-.84,4.61-1.26,7.73-1.26,2.33,0,4.75.35,7.25,1.04,2.5.7,4.87,1.79,7.1,3.27l1.86-4.39c-2.08-1.44-4.56-2.57-7.44-3.38-2.88-.82-5.78-1.23-8.7-1.23-4.41,0-8.03.66-10.86,1.97-2.83,1.31-4.92,3.05-6.28,5.21-1.36,2.16-2.04,4.52-2.04,7.1,0,2.78.58,5.02,1.75,6.73,1.16,1.71,2.7,3.09,4.61,4.13,1.91,1.04,4,1.87,6.28,2.49,2.28.62,4.56,1.2,6.84,1.75,2.28.55,4.36,1.18,6.25,1.9,1.88.72,3.41,1.7,4.57,2.94,1.17,1.24,1.75,2.88,1.75,4.91,0,1.69-.48,3.22-1.45,4.61-.97,1.39-2.48,2.49-4.54,3.31-2.06.82-4.72,1.23-7.99,1.23s-6.68-.61-9.78-1.82c-3.1-1.21-5.57-2.71-7.4-4.5l-2.16,4.24c1.93,1.98,4.67,3.61,8.22,4.87,3.54,1.26,7.25,1.9,11.12,1.9,4.46,0,8.12-.66,10.97-1.97,2.85-1.31,4.97-3.05,6.36-5.21,1.39-2.16,2.08-4.5,2.08-7.03,0-2.73-.58-4.93-1.75-6.62-1.17-1.68-2.7-3.04-4.61-4.05Z"/>
      <polygon class="cls-6" points="685.78 216.05 679.46 216.05 648.9 247.48 648.9 216.05 643.4 216.05 643.4 268.11 648.9 268.11 648.9 254.41 659.55 243.62 680.8 268.11 687.35 268.11 663.28 239.65 685.78 216.05"/>
      <polygon class="cls-6" points="716.65 244.01 743.56 244.01 743.56 239.33 716.65 239.33 716.65 220.81 746.84 220.81 746.84 216.05 711.14 216.05 711.14 268.11 747.95 268.11 747.95 263.35 716.65 263.35 716.65 244.01"/>
      <polygon class="cls-6" points="767.58 216.05 767.58 220.81 785.88 220.81 785.88 268.11 791.38 268.11 791.38 220.81 809.67 220.81 809.67 216.05 767.58 216.05"/>
    </g>
  </g>
  <path class="cls-9" d="M290.99,117.19c-.38-1.71-2.79-1.71-3.18,0-3.34,14.92-9.63,28.65-21.95,38.67-11.51,8.95-21.75,20.47-35.82,26.86-55,20.47-113.84,5.12-170.12,7.67-15.88,1.06-31.76,4.75-46.91,11.07,21.63,55.77,76.62,94.91,140.48,92.91,75.86-2.37,137.69-63.57,140.83-139.4.54-13.02-.64-25.68-3.33-37.78Z"/>
  <path class="cls-6" d="M292.28,109.13C274.54,44.87,215.55,0,148.82,0,66.76,0,0,66.76,0,148.82c0,18.54,3.37,36.64,10.03,53.8l1.19,3.06,3.03-1.26c5.09-2.12,8.44-9.07,8.44-9.07-5.79-14.94-8.73-30.69-8.73-46.82,0-71.42,63.11-121.53,134.53-121.53,58.08,0,115.42,31.06,130.86,86.98l1.47,6.07c4.12,14.05,1.28,21.84-.48,31.07,8.7-10.03,9.19-23.18,12.02-40.61l.11-.69-.19-.67Z"/>
  <g class="cls-10">
    <path class="cls-4" d="M49.95,144.96c-4.07-9.91-10.61-19.7-11.73-30.59-1.01-9.84,11.97-15.01,20.04-13.02,6.17,1.52,11.31,5.8,15.57,10.51,7.78,8.6,13.35,18.93,18.85,29.15,2.07,3.85,4.14,7.69,6.21,11.54,9.43,17.53,18.85,35.05,28.28,52.57,2.11,3.93,4.24,7.91,5.31,12.23,1.06,4.33.96,9.12-1.24,13-4,7.04-13.89,8.9-21.45,6.01-7.56-2.89-13.15-9.34-17.82-15.95-1.93-2.74-3.76-5.55-5.59-8.35-4.93-7.56-9.86-15.13-14.8-22.69-6.24-9.57-12.54-19.24-16.55-29.94-1.8-4.79-3.13-9.74-5.07-14.48"/>
    <path class="cls-4" d="M48.53,107.76c-2.75-4.97-6.69-8.67-6.73-14.78-.04-5.44,3.91-11.69,10.08-10.81,2.33.33,4.33,2.05,5.1,4.27.39,1.12.53,2.41-.05,3.5-.86,1.62-2.59,1.97-3.32.09-.98-2.5,1.11-6.04,2.37-8.13,1.33-2.23,3.09-4.8,5.28-6.29,5.15-3.5-1.17-10.42-5.11-5.46-4.54,5.72-13.81,18.66-5.22,25.05,3.71,2.76,8.33,1.02,10.23-2.97,1.66-3.48.77-7.6-1.63-10.52-5.75-7-16.51-4.26-20.53,3.13-4.44,8.16-1.08,20.49,6.59,25.66,1.73,1.16,3.92-.95,2.93-2.74"/>
    <path class="cls-7" d="M64.11,112.8c2.73,1.9,5.25,4.32,7.21,7.02,1.6,2.19,2.35,5.15,4.54,6.8.58.43,1.62.07,1.77-.65.66-3.14-1.65-6.09-3.5-8.46-2.35-3.04-5.21-5.22-8.64-6.91-1.49-.73-2.8,1.23-1.39,2.21"/>
    <path class="cls-7" d="M80.13,134.48c.32.8.57,1.81,1.25,2.37.73.6,1.73,1.2,2.68.68.83-.44,1.01-1.45.98-2.3-.04-1.06-.71-1.86-1.26-2.72-.58-.91-1.8-1.45-2.81-.84-1.05.63-1.28,1.73-.84,2.81"/>
    <path class="cls-7" d="M85.77,205.08c3.74,6.43,8.1,12.12,13.37,17.38,3.37,3.37,9.97,11.06,15.36,8.79.95-.4,1.26-2.03.44-2.71-2.03-1.69-4.88-2.02-7.14-3.53-2.78-1.86-5.32-4.09-7.78-6.35-4.74-4.38-9.24-9.24-13.29-14.27-.42-.53-1.3.11-.96.69"/>
    <path class="cls-7" d="M122.58,232.22c.68.18,1.35.27,2.04.21.96-.08,1.68-.34,2.39-1.02.6-.58.7-1.54.2-2.21-.54-.73-1.34-.81-2.16-.51.09-.04-.75.26-.62.2-.19.1-.36.23-.55.32-.24.11-.52.21-.82.23-.71.06-1.33.42-1.45,1.18-.11.67.27,1.41.96,1.6"/>
  </g>
  <g class="cls-11">
    <path class="cls-4" d="M128.26,177.93c-8.53,3.12-16.54-3.96-17.87-12-2.92.04-5.02.04-6.72-2.45-.97-1.43-.9-3.35-2.39-4.48-2.12-1.61-5.69-.96-8.17-2.06-2.72-1.21-4.76-3.28-5.63-6.17-1.17-3.88.28-8.41,3.48-10.9-5.69-12.01,2.04-28.3,14.94-31.49,3.34-6.58,7.99-12.96,14.77-15.87,6.78-2.91,15.98-1.07,19.33,5.51,5.49-2.72,11.49-4.94,17.6-4.45,6.11.49,12.29,4.29,13.9,10.2.54,1.97.57,4.11,1.53,5.92,1.88,3.56,6.43,4.52,9.78,6.74,7.28,4.83,7.58,17.18.55,22.36,5.45,7.34,5.19,18.39-.61,25.46-.97,1.19-2.09,2.28-2.78,3.65-.87,1.72-.99,3.71-1.37,5.61-.96,4.75-3.85,9.2-8.11,11.51-4.26,2.32-9.86,2.23-13.75-.66-6.62,6.6-19.62,4.32-23.59-4.14-.52-1.11-1.06-2.43-2.24-2.77-.88-.25-1.79.16-2.65.48"/>
    <path class="cls-3" d="M132.62,194.17c6.91-10.09,14.93-19.42,23.88-27.76,2.52-2.35,9.65-6.56,7.39-10.87-2.51-4.78-9.41-1.43-12.4.67-3.63,2.56-6.95,5.56-9.86,8.92-1.04,1.2-2.77,2.55-3.98,1.52-1.04-.87-.47-2.54.17-3.73,2.29-4.24,4.57-8.48,6.86-12.72,1.04-1.93,1.95-4.67.23-6.04-1.06-.84-2.68-.61-3.79.17-1.11.78-1.82,1.99-2.51,3.16-1.88,3.23-3.77,6.46-5.65,9.7-.66,1.13-1.34,2.29-2.39,3.07-1.05.78-2.56,1.09-3.66.4-1.94-1.22-1.27-4.16-.37-6.27,1.75-4.1,3.49-8.2,5.24-12.3.54-1.26,1.09-2.6.94-3.96-.15-1.36-1.27-2.73-2.64-2.62-1.45.11-2.3,1.64-2.88,2.96-2.64,6.01-5.28,12.02-7.91,18.03-1.32.18-1.83-1.65-1.82-2.98.04-5.15.09-10.3.13-15.46.02-2.04,0-4.21-1.13-5.91-4.37-6.61-4.84,3.29-4.91,5.62-.15,5.11-.62,10.21-1.38,15.26-1.52,10.11-4.24,20.03-8.11,29.49-.69,1.69-1.41,3.65-.58,5.27.52,1,1.52,1.63,2.48,2.21,5,3.03,10.08,5.92,15.23,8.69,1.76.94,3.63,1.9,5.62,1.78,3.46-.2,5.84-3.43,7.79-6.29"/>
    <path class="cls-8" d="M116.48,108.57c-.17,1.66.65,3.03,2.21,3.74,1.86.85,3.41.07,5-.93-.64-.42-1.28-.83-1.92-1.24-1.04,5.45,8.35,8.45,10.78,3.54.73-1.47-.51-2.96-2.02-2.93-1.21.02-2.23.72-3.44.62-1.45-.13-2.17-1.19-3.29-1.95-.68-.46-1.52-.37-1.93.4-1.89.9-3.11.73-3.67-.51-.18-.33-.36-.66-.54-.99-.27-.5-1.13-.3-1.19.25"/>
    <path class="cls-8" d="M154.43,126.03c.35,1.2.99,2.21,2.08,2.88.7.43,2.31.21,2.74.56.58.47.43,2.01,1.01,2.92.7,1.09,1.97,1.91,3.23,2.18.6.13,1.29.13,1.89.03,1.64-.27.78-.13.2-.83,1.32,1.6,2.08,3.31,3.81,4.57,2.14,1.55,6,2.4,7.75-.1.84-1.21.15-2.87-1.42-2.81-1.18.05-2.25.4-3.37-.17-1.22-.62-1.96-2.07-2.71-3.15-.98-1.43-1.93-2.52-3.81-2.12-1.17.25-1.79.83-2.87-.14-.56-.5-.7-1.33-1.32-1.76-1.92-1.33-4.5.63-5.46-2.67-.34-1.15-2.09-.53-1.75.62"/>
    <path class="cls-8" d="M130.28,127.82c.05,1.73,1.18,2.77,2.83,3.15,1.29.3,1.68.05,2.53,1.05.83.98,1.49,1.88,2.7,2.45,1.05.5,2.19.3,3.21.63,1.02.32,1.4.98,2.27,1.67,1.9,1.5,4.27,1.82,6.56,1.31,2.42-.54,1.42-4.22-.88-4.1-3.28.16-4.05-3.18-7.21-3.3-.93-.04-1.74.14-2.63-.34-.71-.38-1.18-1.04-1.9-1.41-1.39-.7-5.45.64-5.73-1.25-.16-1.12-1.79-1-1.76.15"/>
    <path class="cls-8" d="M160.96,166.84c-.77,1.16-1.09,2.58-.26,3.84.72,1.09,2.52,1.82,3.77,1.25.93-.42-.05-.08.02-.44-.06.32.26,1.34.37,1.63.27.7.73,1.35,1.32,1.8,1.57,1.2,3.33.8,4.92-.12,2.24-1.29.54-4.1-1.48-4.19-.34-.02-.66,0-.99.11-.12.04-1.03.78-1.15.78-.28.3-.31.26-.08-.12.2-.21.2-.4,0-.59-.07-.26-.46-.7-.65-.87-.38-.32-.8-.49-1.28-.52-.34-.02-.66.1-.98.17-.25.07-.51.13-.77.18-.99.4-1.4-.24-1.23-1.91.45-.89-.94-1.87-1.51-.99"/>
    <path class="cls-8" d="M93.88,127.84c-1.34,2.61.7,3.66,2.86,4.22.53.11.54-.03.02-.42.11.41.24.8.39,1.19.28.55.64,1,1.14,1.39,1.49,1.15,2.85.69,4.54.99-.49-.32-.98-.63-1.46-.95,1.69,2,2.39,3.8,5.39,3.96,2.88.16,3.73-4.33.8-4.48-1.64-.09-1.72-1.59-2.87-2.44-1.07-.79-1.85-.4-3-.48-1.28-.09-1.77-.91-2.88-1.31-.82-.29-3.75.25-3.58-1.26.09-.8-.98-1.18-1.36-.44"/>
  </g>
  <g class="cls-12">
    <path class="cls-3" d="M257.42,103.8c8.6,3.99,14.78,11.95,18.97,20.45,2.41,4.87,4.28,10.05,5.07,15.43,2.59,17.81-7.98,36.22-23.83,44.76-15.85,8.53-35.84,7.7-51.98-.26-4.75-2.35-9.35-5.4-12.25-9.84-4.08-6.25-3.86-14.1-1.45-20.93,2.98-8.46,9.2-13.36,14.57-20.15,6.98-8.83,14.66-18.69,23.47-25.78,7.66-6.16,18.48-7.82,27.44-3.67"/>
    <path class="cls-4" d="M220.57,98.78c3.28-1.86,13.37,15.64,18.5,24.53,2.78-3.44,6.52-6.1,10.67-7.62,1.26-.46,2.4.96,1.7,2.1-2.89,4.7-6.44,8.98-10.53,12.68-1.28,1.16-2.75,2.58-2.52,4.29.13.99.82,1.8,1.44,2.58,5.44,6.72,8.52,15.29,8.72,23.93.03,1.43-1.83,2.02-2.64.84-5.23-7.62-9.99-15.56-14.74-23.49-3.79,7.57-8.23,14.82-13.26,21.62-.98,1.33-3.07.24-2.52-1.32,2.76-7.88,5.52-15.76,8.27-23.64-6.18,2.59-12.84,4.01-19.54,4.2-1.42.04-2.05-1.76-.91-2.6,3.28-2.41,6.57-4.83,9.85-7.24,3.7-2.72,10.55-5.35,10-10.76-.34-3.34-1.68-6.69-2.09-10.07-.2-1.63.49-9.12-.41-10.04"/>
  </g>
  <g>
    <path class="cls-5" d="M121.48,261.34c-29.52,0-83.04-7.86-109.95-60.44-4.75-13.1-5.38-23.69-1.96-33.34,3.08-8.69,9.46-16.84,20.68-26.42,13.71-11.71,32.4-18.16,52.64-18.16,1.86,0,3.74.06,5.59.17,19.38,1.17,39.26,8,59.11,20.31,3.68,2.28,7.37,4.76,10.94,7.15,8.6,5.77,17.49,11.74,27.34,15.75,9.14,3.72,18.96,5.6,29.17,5.6,16.28,0,32.33-4.95,45.2-13.94,15.1-10.54,27-31.34,30.55-47.11.83,3.1,1.55,6.5,1.93,9.89,1.09,27.57-15.12,58.3-45.66,86.55-25.25,23.36-57.79,42.52-82.91,48.79-13.59,3.4-28.35,5.19-42.67,5.19Z"/>
    <path class="cls-5" d="M290.24,121.18c.94,26.75-14.98,56.69-44.87,84.35-12.61,11.67-27.26,22.46-42.34,31.18-14.04,8.12-28.06,14.17-39.48,17.02-13.39,3.35-27.94,5.12-42.07,5.12-28.92,0-81.32-7.67-107.66-58.94-4.5-12.45-5.1-22.47-1.9-31.5,2.92-8.25,9.08-16.07,19.94-25.36,13.25-11.32,31.37-17.56,51.01-17.56,1.81,0,3.64.06,5.44.16,18.96,1.15,38.45,7.85,57.95,19.94,3.64,2.26,7.31,4.72,10.86,7.1,8.7,5.84,17.71,11.88,27.79,15.99,9.44,3.84,19.57,5.79,30.11,5.79,16.78,0,33.34-5.11,46.63-14.39,10.01-6.99,19.42-18.81,25.81-32.42,1.03-2.19,1.95-4.36,2.75-6.48M288.68,97.06c3.93,11.78-9.22,44.5-29.86,58.91-12.73,8.89-28.26,13.49-43.77,13.49-9.65,0-19.29-1.78-28.23-5.42-13.67-5.56-25.36-14.93-37.9-22.71-18.24-11.31-38.86-19.38-60.28-20.68-1.91-.12-3.82-.17-5.74-.17-19.6,0-39.4,6.06-54.26,18.76-20.96,17.91-29.66,34.51-19.39,62.66,24.02,47.09,70.46,61.94,112.25,61.94,15.53,0,30.43-2.05,43.28-5.27,47.45-11.86,133.08-73.84,130.46-137.96-1.31-11.78-6.54-23.55-6.54-23.55h0Z"/>
  </g>
</svg>